<svg width="21" height="20" fill="none" xmlns="http://www.w3.org/2000/svg"><g opacity=".8" clip-path="url(#clip0_218_3233)" fill-rule="evenodd" clip-rule="evenodd" fill="#7C90A1"><path d="M2.398 3.503a2.544 2.544 0 011.768-.708h5.833c.46 0 .834.36.834.806a.82.82 0 01-.834.806H4.166a.848.848 0 00-.59.236.793.793 0 00-.243.57v11.284a.79.79 0 00.244.57.848.848 0 00.589.236h11.667a.847.847 0 00.589-.236.793.793 0 00.244-.57v-5.642a.82.82 0 01.833-.806c.46 0 .834.36.834.806v5.642a2.38 2.38 0 01-.733 1.71 2.543 2.543 0 01-1.767.708H4.166a2.543 2.543 0 01-1.768-.708 2.379 2.379 0 01-.732-1.71V5.213c0-.641.263-1.256.732-1.71z"/><path d="M17.5 2.697a.95.95 0 00-.661.265l-7.754 7.5-.44 1.704 1.762-.426 7.753-7.5c.175-.17.274-.399.274-.639s-.099-.47-.274-.639a.95.95 0 00-.66-.265zm-1.84-.875a2.647 2.647 0 011.84-.737c.69 0 1.35.266 1.839.737a2.48 2.48 0 01.762 1.78c0 .667-.275 1.306-.762 1.778l-7.917 7.657a.84.84 0 01-.387.212l-3.334.806a.852.852 0 01-.79-.212.788.788 0 01-.22-.765l.833-3.224a.8.8 0 01.22-.375l7.916-7.657z"/></g><defs><clipPath id="clip0_218_3233"><path fill="#fff" transform="translate(.833 .377)" d="M0 0h20v19.344H0z"/></clipPath></defs></svg>