<svg width="41" height="35" fill="none" xmlns="http://www.w3.org/2000/svg"><path d="M22.848.083a10.735 10.735 0 00-5.253 2.12c-.548.425-1.476 1.349-1.902 1.888a10.66 10.66 0 00-1.018 1.562c-.254.494-.213.48-.68.2-1.308-.789-2.671-.997-4.12-.63-2.151.543-3.804 2.409-4.135 4.673l-.072.507-.208.077a10.77 10.77 0 00-1.345.684C2.086 12.45.795 14.5.524 16.86c-.195 1.726.244 3.56 1.213 5.05 1.046 1.611 2.74 2.843 4.542 3.305.956.245.788.236 4.931.258 2.735.014 3.922.005 4.04-.031a.796.796 0 00.588-.77c0-.308-.154-.557-.439-.716-.122-.068-.525-.081-4.075-.104-3.537-.023-3.976-.032-4.28-.104-.846-.2-1.707-.57-2.354-1.028-.467-.326-1.196-1.073-1.508-1.54-.698-1.05-1.014-2.028-1.06-3.278-.063-1.734.512-3.265 1.694-4.51a6.272 6.272 0 012.558-1.621c.24-.082.494-.19.562-.24.194-.154.285-.417.29-.829.009-1.01.375-1.979 1.032-2.694.552-.607 1.118-.96 1.934-1.205.362-.108.48-.122 1.064-.122.525 0 .729.018 1.019.095.507.136 1.209.494 1.58.81.516.435.52.44.801.458.444.032.68-.154.897-.706.444-1.128 1.236-2.296 2.16-3.175 1.707-1.634 3.854-2.495 6.222-2.495 3.45 0 6.507 1.893 8.065 4.99.747 1.486 1.09 3.351.9 4.873-.054.434-.013.656.164.87.19.226.335.27.982.316 1.436.104 2.627.639 3.61 1.63 1.127 1.132 1.675 2.536 1.616 4.144a5.188 5.188 0 01-.57 2.264c-.77 1.544-2.075 2.563-3.84 2.998-.272.063-.797.076-4.542.1l-4.234.026-.163.104a.804.804 0 00-.24.213.952.952 0 00-.113.684c.063.222.33.503.538.562.213.058 7.762.058 8.323 0a7.237 7.237 0 006.123-4.94c.244-.743.335-1.337.335-2.215.004-1.223-.177-1.997-.72-3.102-.983-1.992-2.944-3.45-5.163-3.854l-.452-.081-.005-.77c-.027-3.568-1.947-6.933-5.053-8.866-.521-.326-1.554-.81-2.12-1.005a12.682 12.682 0 00-1.902-.462c-.516-.082-2.092-.118-2.626-.064z" fill="#fff"/><path d="M20.403 16.616a1.053 1.053 0 00-.434.412c-.055.104-.064 1.214-.064 7.327 0 3.957-.014 7.2-.036 7.2-.018 0-.643-.612-1.39-1.363-.747-.752-1.422-1.39-1.504-1.427a.952.952 0 00-.634-.013 1.03 1.03 0 00-.448.412c-.077.145-.081.475-.018.656.05.132 4.741 4.86 4.823 4.86.027 0 1.109-1.065 2.409-2.37 2.522-2.526 2.5-2.499 2.445-2.893-.068-.516-.657-.856-1.132-.652-.082.037-.756.675-1.504 1.427-.747.751-1.372 1.363-1.39 1.363-.022 0-.036-3.243-.036-7.2 0-7.852.018-7.309-.258-7.572a.802.802 0 00-.829-.167z" fill="#fff"/></svg>