<svg width="41" height="39" fill="none" xmlns="http://www.w3.org/2000/svg"><path d="M20.597.681a1.828 1.828 0 00-.264.102c-.077.04-4.37 4.297-9.659 9.582-7.259 7.254-9.541 9.562-9.623 9.712-.288.56-.057 1.218.536 1.51.191.09.265.107.496.09.187-.008.337-.044.455-.105.126-.065 2.965-2.872 9.229-9.115 4.976-4.96 9.058-9.014 9.07-9.014.012.004 2.104 2.104 4.643 4.667 11.88 11.987 13.396 13.502 13.559 13.584.231.121.678.146.954.052.614-.203.894-.91.614-1.547-.07-.155-.95-1.056-4.676-4.793l-4.59-4.603v-3.18c0-2.04-.016-3.233-.04-3.33a1.316 1.316 0 00-.492-.655c-.58-.353-1.3-.162-1.612.435l-.11.207-.02 2.108-.02 2.108L25.24 4.67C22.271 1.688 21.394.827 21.251.762c-.21-.093-.483-.126-.654-.081z" fill="#fff"/><path d="M33.75 19.07c-.243.089-.511.345-.625.593l-.097.215-.013 7.97-.008 7.973h-8.124v-3.262c0-2.79-.008-3.294-.06-3.469-.082-.272-.358-.58-.63-.698l-.203-.086-3.217.008-3.221.013-.167.089c-.256.138-.394.268-.524.508l-.122.215-.012 3.339-.008 3.343H8.595l-.008-7.75-.012-7.746-.11-.191c-.22-.37-.569-.56-1.028-.56-.309 0-.61.137-.808.373-.289.337-.268-.37-.268 8.867 0 9.294-.025 8.534.288 8.888.085.101.244.223.35.276l.194.097h10.968l.195-.097c.105-.053.264-.175.35-.276.3-.337.288-.171.288-3.839v-3.282h3.611l.012 3.319c.012 3.286.012 3.326.097 3.51.11.23.346.466.585.58l.183.085h10.967l.224-.126c.121-.069.284-.203.353-.296.276-.358.26.3.248-9.184l-.012-8.591-.094-.203a1.151 1.151 0 00-.516-.557c-.21-.113-.666-.138-.901-.048z" fill="#fff"/></svg>