<svg width="45" height="32" fill="none" xmlns="http://www.w3.org/2000/svg"><path d="M8.269.268c.417.094.5.133 5.99 2.74 4.233 2.014 7.322 3.477 7.734 3.673.256.118 1.591.756 2.97 1.41 1.376.653 3.335 1.58 4.346 2.062 7.926 3.756 7.332 3.461 7.72 3.825.56.52.824 1.223.726 1.905-.059.417-.123.609-.412 1.184a5.154 5.154 0 00-.226.486c0 .024.987 0 2.195-.045a229.44 229.44 0 013.23-.098c.968-.015 1.047-.01 1.258.089.722.334 1.075 1.095.84 1.811-.055.163-.531 1.189-1.056 2.284-.526 1.095-1.591 3.314-2.367 4.934-2.303 4.808-2.097 4.41-2.342 4.587a1.477 1.477 0 01-1.837-.064c-.113-.093-.938-1.252-1.983-2.78l-1.788-2.612-.25.511c-.138.28-.33.624-.432.761-.432.594-1.228.899-2.048.796-.368-.045-.594-.138-1.94-.781a69.078 69.078 0 00-1.03-.491c-.163-.074-.968-.457-1.793-.85-2.298-1.09-6.354-3.02-6.85-3.25a297.514 297.514 0 01-2.538-1.208c-.07-.04-.103-.01-.182.137-.339.644-1.188 1.326-1.91 1.542l-.206.06v3.25c0 1.993-.02 3.353-.05 3.515-.132.698-.687 1.449-1.315 1.778-.658.344-.325.329-6.354.329H.929V29.99h10.776l.192-.113a.855.855 0 00.309-.324l.113-.216-.01-3.24-.015-3.241-.255-.089c-.972-.329-1.841-1.203-2.156-2.17-.103-.314-.137-.53-.152-.992-.024-.56-.005-.707.167-1.424.02-.088-.093-.157-.879-.525-.496-.236-1.473-.703-2.175-1.036-.702-.334-2.018-.958-2.922-1.385-.903-.432-1.733-.845-1.84-.913a2.536 2.536 0 01-1.057-1.62c-.113-.669-.162-.55 2.539-6.252C5.907 1.51 6.02 1.28 6.29.99A2.335 2.335 0 017.532.308c.34-.074.546-.084.737-.04zm-.594 1.876c-.098.06-.201.197-.275.359-.069.142-.624 1.31-1.233 2.592-2.872 6.055-3.373 7.135-3.373 7.272 0 .29.128.432.555.634.22.103.658.304.967.456 1.036.491 7.434 3.53 7.93 3.767.437.206 4.36 2.072 11.883 5.646 1.375.653 3.403 1.62 4.508 2.141 1.738.825 2.033.953 2.234.953.128 0 .265-.03.304-.064.045-.034.167-.26.28-.5.108-.246.786-1.68 1.503-3.192 3.275-6.934 3.04-6.413 3.015-6.64a.697.697 0 00-.089-.294c-.068-.078-.461-.275-2.229-1.11l-3.339-1.58c-1.35-.644-3.074-1.459-3.83-1.817L22.19 8.729c-1.606-.761-4.601-2.18-6.654-3.157-2.052-.973-4.561-2.161-5.573-2.642-1.075-.51-1.9-.874-1.989-.88a.708.708 0 00-.3.094zm3.83 16.872a3.252 3.252 0 00-.01.58c.015.372.044.51.152.73.24.497.668.787 1.272.88.447.069.87-.025 1.252-.275.24-.157.506-.447.506-.545 0-.04-3.02-1.493-3.103-1.493-.02 0-.05.054-.07.123zm27.699.27c-1.62.059-2.961.118-2.976.137-.02.02-.368.752-.78 1.63-.413.88-.865 1.847-1.012 2.156-.148.31-.265.58-.265.604 0 .02.712 1.085 1.586 2.362a511.552 511.552 0 011.88 2.755l.29.432.177-.383c.098-.216.461-.973.805-1.69.85-1.772 3.81-7.964 3.84-8.042.034-.079-.025-.079-3.545.039z" fill="#fff"/></svg>