<svg width="19" height="17" fill="none" xmlns="http://www.w3.org/2000/svg"><path d="M3.488 1.286C2.415 1.768 1.32 2.972.969 4.046c-.438 1.358-.197 3.745.526 5.19.788 1.578 3.022 3.746 5.87 5.717l2.146 1.49 2.125-1.49c4.6-3.154 6.461-5.585 6.593-8.542.11-1.862-.197-2.891-1.117-3.942C15.36.497 11.92.279 10.015 2.03l-.504.438-.482-.438C7.693.804 5.24.475 3.488 1.286zm3.964 1.03c.417.196 1.052.722 1.402 1.16l.657.789.657-.789c1.775-2.168 5.104-1.971 6.484.373 1.183 2.015.482 4.709-1.862 7.074-1.205 1.227-4.862 3.965-5.279 3.965-.416 0-4.074-2.738-5.278-3.965-3.001-3.044-3.22-6.79-.504-8.432 1.03-.636 2.628-.701 3.723-.176z" fill="#243CA0"/></svg>