<svg width="161" height="89" fill="none" xmlns="http://www.w3.org/2000/svg"><path d="M1.701 89c.92 0 1.366-.42 1.78-1.538l1.997-5.394a.173.173 0 00-.02-.162.168.168 0 00-.142-.076H4.094a.172.172 0 00-.165.122l-.984 3.11a.17.17 0 01-.164.123.17.17 0 01-.165-.12L1.589 81.95a.171.171 0 00-.165-.12H.174c-.06 0-.11.027-.143.077a.174.174 0 00-.019.163l2.004 5.204a.173.173 0 01-.01.151c-.122.216-.26.283-.497.283-.154 0-.336-.053-.504-.133a.164.164 0 00-.133-.006.168.168 0 00-.098.092l-.371.812a.177.177 0 00.077.23c.352.186.732.297 1.221.297zm7.894-1.672h1.171a.175.175 0 00.173-.175v-2.524c0-.078.049-.145.123-.168a.17.17 0 01.194.07l1.027 1.536a.17.17 0 00.144.077c.06 0 .11-.027.143-.077l1.048-1.567a.173.173 0 01.317.099v2.553c0 .097.077.176.173.176h1.211a.175.175 0 00.174-.175v-5.147a.175.175 0 00-.174-.176h-1.29a.168.168 0 00-.146.08l-1.29 2.002a.169.169 0 01-.145.08.169.169 0 01-.146-.081l-1.27-2a.169.169 0 00-.147-.08h-1.29a.175.175 0 00-.173.175v5.147c0 .096.077.175.173.175zm15.013-5.498h-1.19a.175.175 0 00-.174.176v1.762a.175.175 0 01-.174.175h-1.545a.175.175 0 01-.174-.175v-1.762a.175.175 0 00-.173-.176h-1.191a.175.175 0 00-.174.176v5.147c0 .096.078.175.174.175h1.191a.175.175 0 00.173-.175V85.4c0-.096.079-.175.174-.175h1.545c.096 0 .174.079.174.175v1.752c0 .096.078.175.173.175h1.191a.175.175 0 00.174-.175v-5.147a.175.175 0 00-.174-.176zm4.668 5.498h2.558c1.306 0 2.085-.708 2.085-1.867 0-1.23-.91-1.815-2.166-1.815h-.94a.175.175 0 01-.173-.176v-1.464a.175.175 0 00-.173-.176h-1.191a.175.175 0 00-.174.176v5.147c0 .096.078.175.174.175zm2.326-2.502c.506 0 .769.236.769.615 0 .42-.253.656-.76.656h-.797a.175.175 0 01-.174-.175v-.92c0-.097.078-.176.174-.176h.788zm3.209 2.502h1.191a.175.175 0 00.173-.175v-5.147a.175.175 0 00-.173-.176h-1.191a.175.175 0 00-.174.176v5.147c0 .096.078.175.174.175zm8.255.123c.91 0 1.602-.335 2.102-.89a.171.171 0 00.045-.128.171.171 0 00-.059-.122l-.637-.572a.17.17 0 00-.227-.002c-.38.326-.733.463-1.204.463-.606 0-1.056-.287-1.258-.84a.173.173 0 01.02-.162.168.168 0 01.143-.075h3.382a.174.174 0 00.173-.165c.005-.086.01-.17.01-.245 0-1.56-.83-2.985-2.642-2.985-1.578 0-2.681 1.292-2.681 2.862 0 1.702 1.204 2.861 2.833 2.861zm-1.275-3.527c.165-.58.556-.945 1.123-.945.578 0 .962.376 1.103.951a.172.172 0 01-.031.151.168.168 0 01-.137.067h-1.891a.168.168 0 01-.139-.07.172.172 0 01-.028-.154zm11.76 5.045h1.19a.175.175 0 00.174-.175v-1.75c0-.071.038-.131.102-.16a.168.168 0 01.186.027c.336.3.778.52 1.402.52 1.285 0 2.469-1.006 2.469-2.841 0-1.857-1.204-2.862-2.47-2.862-.608 0-1.053.22-1.396.552a.173.173 0 01-.293-.127v-.147a.175.175 0 00-.173-.176H53.55a.175.175 0 00-.173.176v6.788c0 .097.078.175.173.175zm2.66-2.861c-.72 0-1.316-.606-1.316-1.519 0-.933.597-1.538 1.315-1.538s1.325.605 1.325 1.518c0 .944-.606 1.538-1.325 1.538zm9.51 1.343c.91 0 1.603-.335 2.102-.89a.171.171 0 00.045-.128.171.171 0 00-.058-.122l-.637-.572a.17.17 0 00-.227-.002c-.381.326-.734.463-1.204.463-.607 0-1.056-.287-1.258-.84a.173.173 0 01.02-.162.168.168 0 01.143-.075h3.382a.174.174 0 00.173-.165c.005-.086.009-.17.009-.245 0-1.56-.83-2.985-2.641-2.985-1.578 0-2.681 1.292-2.681 2.862 0 1.702 1.204 2.861 2.833 2.861zm-1.274-3.527c.165-.58.556-.945 1.123-.945.578 0 .962.376 1.103.951a.172.172 0 01-.032.151.168.168 0 01-.136.067h-1.892a.168.168 0 01-.138-.07.172.172 0 01-.028-.154zM80.2 81.83H79a.175.175 0 00-.174.176v3.813a.175.175 0 01-.173.176h-1.374a.175.175 0 01-.173-.176v-3.813a.175.175 0 00-.173-.176H75.74a.175.175 0 00-.174.176v3.813a.175.175 0 01-.173.176H74.01a.175.175 0 01-.173-.176v-3.813a.175.175 0 00-.174-.176h-1.19a.175.175 0 00-.174.176v5.147c0 .096.078.175.173.175H80.2a.175.175 0 00.174-.175v-5.147a.175.175 0 00-.174-.176zm7.064 5.621c.91 0 1.603-.335 2.102-.89a.17.17 0 00.045-.128.17.17 0 00-.058-.122l-.638-.572a.17.17 0 00-.227-.002c-.38.326-.733.463-1.203.463-.607 0-1.057-.287-1.258-.84a.173.173 0 01.02-.162.168.168 0 01.142-.075h3.382a.174.174 0 00.173-.165c.006-.086.01-.17.01-.245 0-1.56-.83-2.985-2.642-2.985-1.578 0-2.68 1.292-2.68 2.862 0 1.702 1.203 2.861 2.832 2.861zm-1.275-3.527c.165-.58.556-.945 1.123-.945.578 0 .963.376 1.103.951a.172.172 0 01-.031.151.167.167 0 01-.137.067h-1.891a.168.168 0 01-.139-.07.172.172 0 01-.028-.154zm12.647-2.094h-1.191a.175.175 0 00-.173.176v1.762a.175.175 0 01-.174.175h-1.545a.175.175 0 01-.173-.175v-1.762a.175.175 0 00-.174-.176h-1.191a.175.175 0 00-.174.176v5.147c0 .096.078.175.174.175h1.191a.175.175 0 00.174-.175V85.4c0-.096.077-.175.173-.175h1.545c.096 0 .174.079.174.175v1.752c0 .096.078.175.173.175h1.191a.175.175 0 00.174-.175v-5.147a.175.175 0 00-.174-.176zm9.37 0h-1.181a.167.167 0 00-.144.079l-1.746 2.65a.17.17 0 01-.194.07.174.174 0 01-.123-.168v-2.455a.175.175 0 00-.174-.176h-1.14a.175.175 0 00-.174.176v5.147c0 .096.078.175.174.175h1.181a.169.169 0 00.144-.078l1.746-2.642a.17.17 0 01.194-.07c.074.023.123.09.123.168v2.447c0 .096.078.175.173.175h1.141a.175.175 0 00.174-.175v-5.147a.175.175 0 00-.174-.176zm9.127 0h-2.67c-1.416 0-2.196.739-2.196 1.836 0 .772.366 1.274.946 1.56a.17.17 0 01.092.113.173.173 0 01-.025.145l-1.076 1.568a.175.175 0 00-.012.182.17.17 0 00.154.094h1.356c.06 0 .112-.028.145-.08l1.041-1.605a.167.167 0 01.145-.08h.562c.096 0 .174.08.174.177v1.413c0 .096.077.175.173.175h1.191a.174.174 0 00.173-.175v-5.147a.174.174 0 00-.173-.176zm-2.407 2.606c-.556 0-.9-.247-.9-.688 0-.45.334-.697.89-.697h.879c.096 0 .174.079.174.176v1.033a.175.175 0 01-.174.176h-.869z" fill="#1A318C"/><path fill-rule="evenodd" clip-rule="evenodd" d="M120.027 34.921a4.99 4.99 0 013.541 1.473 1.04 1.04 0 001.266.173l4.246-2.405c.343-.195.542-.535.545-.934l.003-.144a1.048 1.048 0 00-.301-.798 1.02 1.02 0 00-.779-.326h-.063a3.704 3.704 0 01-3.164-1.79 1.037 1.037 0 00-1.009-.506l-3.052.304a1.04 1.04 0 00-.878.66 4.152 4.152 0 01-1.333 1.734c-.369.28-.516.745-.377 1.19l.193.618c.145.465.559.764 1.04.753l.122-.002zm0 2.045c1.672 0 3.028 1.374 3.028 3.07 0 1.696-1.356 3.07-3.028 3.07-1.673 0-3.029-1.374-3.029-3.07 0-1.696 1.356-3.07 3.029-3.07zM82.213 25.042c1.309 0 2.369 1.075 2.369 2.401 0 1.326-1.06 2.401-2.369 2.401-1.308 0-2.369-1.075-2.369-2.4 0-1.327 1.061-2.402 2.37-2.402zm20.698-5.883c1.061 0 1.92.872 1.92 1.948 0 1.075-.859 1.947-1.92 1.947s-1.921-.872-1.921-1.947c0-1.076.86-1.948 1.921-1.948zm13.692 7.515c1.29 0 2.335 1.06 2.335 2.366 0 1.307-1.045 2.367-2.335 2.367-1.289 0-2.334-1.06-2.334-2.367s1.045-2.366 2.334-2.366zm-7.884-22.552a1.69 1.69 0 011.678 1.7 1.69 1.69 0 01-1.678 1.701 1.69 1.69 0 01-1.678-1.7c0-.94.751-1.701 1.678-1.701zm8.487 10.072c.99 0 1.793.813 1.793 1.817s-.803 1.817-1.793 1.817c-.99 0-1.793-.813-1.793-1.817s.803-1.817 1.793-1.817zm-.805-12.063c1.046 0 1.894.86 1.894 1.92s-.848 1.92-1.894 1.92c-1.045 0-1.893-.86-1.893-1.92s.848-1.92 1.893-1.92zm10.391-.238c1.046 0 1.894.86 1.894 1.92s-.848 1.92-1.894 1.92c-1.045 0-1.893-.86-1.893-1.92s.848-1.92 1.893-1.92zm3.486 12.64c1.056 0 1.912.867 1.912 1.937s-.856 1.937-1.912 1.937c-1.055 0-1.911-.867-1.911-1.937s.856-1.938 1.911-1.938zm-5.248.444c.693 0 1.255.569 1.255 1.272 0 .702-.562 1.272-1.255 1.272-.693 0-1.255-.57-1.255-1.272 0-.703.562-1.272 1.255-1.272zm13.176 4.93c.885 0 1.603.728 1.603 1.626 0 .897-.718 1.624-1.603 1.624a1.614 1.614 0 01-1.603-1.624c0-.898.717-1.625 1.603-1.625zm6.234-10.315c1.1 0 1.992.904 1.992 2.02 0 1.114-.892 2.018-1.992 2.018s-1.992-.904-1.992-2.019c0-1.115.892-2.019 1.992-2.019zm6.067 6.47c1.166 0 2.112.959 2.112 2.14 0 1.183-.946 2.141-2.112 2.141-1.166 0-2.111-.958-2.111-2.14 0-1.182.945-2.14 2.111-2.14zm-16.994 15.004c1.192 0 2.159.98 2.159 2.19 0 1.208-.967 2.188-2.159 2.188-1.193 0-2.159-.98-2.159-2.189s.966-2.189 2.159-2.189zm-5.028-4.906c1.107 0 2.005.91 2.005 2.033 0 1.122-.898 2.032-2.005 2.032-1.107 0-2.005-.91-2.005-2.032 0-1.123.898-2.033 2.005-2.033zm16.826 3.11c1.117 0 2.022.917 2.022 2.049 0 1.131-.905 2.048-2.022 2.048-1.116 0-2.021-.917-2.021-2.048 0-1.132.905-2.05 2.021-2.05zm9.888-6.346c1.13 0 2.046.93 2.046 2.075s-.916 2.074-2.046 2.074-2.046-.929-2.046-2.074c0-1.146.916-2.075 2.046-2.075zm-4.558 15.74c.737 0 1.335.605 1.335 1.353 0 .747-.598 1.353-1.335 1.353a1.344 1.344 0 01-1.335-1.353c0-.748.598-1.353 1.335-1.353zm-15.578 6.038c1.003 0 1.816.824 1.816 1.84 0 1.017-.813 1.84-1.816 1.84a1.828 1.828 0 01-1.816-1.84c0-1.016.813-1.84 1.816-1.84zm.662 11.338c.786 0 1.423.645 1.423 1.442 0 .796-.637 1.441-1.423 1.441a1.432 1.432 0 01-1.422-1.441c0-.797.637-1.442 1.422-1.442zm-7.193-2.277c.67 0 1.214.551 1.214 1.231s-.544 1.23-1.214 1.23a1.222 1.222 0 01-1.214-1.23c0-.68.543-1.23 1.214-1.23zm29.035-20.798c.847 0 1.534.697 1.534 1.556 0 .86-.687 1.556-1.534 1.556a1.546 1.546 0 01-1.535-1.556c0-.86.687-1.556 1.535-1.556zm-67.585.648c1.119 0 2.026.919 2.026 2.053s-.907 2.053-2.026 2.053c-1.118 0-2.025-.92-2.025-2.053 0-1.134.907-2.053 2.025-2.053zm13.408 6.694c1.118 0 2.025.919 2.025 2.052 0 1.134-.907 2.053-2.025 2.053-1.119 0-2.025-.919-2.025-2.053 0-1.133.906-2.053 2.025-2.053zm3.828-11.043c1.119 0 2.025.92 2.025 2.053 0 1.134-.906 2.053-2.025 2.053-1.118 0-2.025-.92-2.025-2.053 0-1.134.907-2.053 2.025-2.053zM90.09 15.503c1.119 0 2.025.92 2.025 2.053 0 1.134-.906 2.053-2.025 2.053-1.118 0-2.025-.92-2.025-2.053 0-1.134.907-2.053 2.025-2.053zm7.106-6.108c1.077 0 1.95.886 1.95 1.977 0 1.092-.873 1.977-1.95 1.977s-1.95-.885-1.95-1.977c0-1.091.873-1.977 1.95-1.977zm44.194 33.008c1.125 0 2.037.924 2.037 2.065 0 1.14-.912 2.065-2.037 2.065s-2.038-.925-2.038-2.065.913-2.066 2.038-2.066zM97.583 24.59c.694 0 1.255.57 1.255 1.272 0 .703-.561 1.273-1.255 1.273-.693 0-1.255-.57-1.255-1.273 0-.702.562-1.272 1.255-1.272zm47.713-3.168c.693 0 1.255.57 1.255 1.272 0 .703-.562 1.272-1.255 1.272-.693 0-1.255-.57-1.255-1.272 0-.703.562-1.272 1.255-1.272zM134.602 3.966c1.046 0 1.894.86 1.894 1.92s-.848 1.919-1.894 1.919c-1.045 0-1.893-.86-1.893-1.92s.848-1.919 1.893-1.919zm10.694 16.045c.365 0 .712.074 1.028.21l.398-.356c.289-.259.412-.623.342-1.007a3.623 3.623 0 01-.06-.655c0-1.961 1.569-3.551 3.503-3.551 1.935 0 3.503 1.59 3.503 3.55 0 1.962-1.568 3.552-3.503 3.552a3.454 3.454 0 01-2.042-.666l-.21.187a1.063 1.063 0 00-.346.983c.023.142.035.288.035.437 0 1.482-1.186 2.684-2.648 2.684a2.61 2.61 0 01-.751-.11 1.027 1.027 0 00-1.006.226l-6.023 5.39a1.068 1.068 0 00-.307 1.143 4.006 4.006 0 01-.23 3.013c-.174.347-.157.73.046 1.06l2.672 4.346c.234.38.649.568 1.085.492a3.51 3.51 0 012.827.742c.321.262.732.316 1.108.144l2.46-1.127c.364-.167.593-.498.623-.902.025-.33.104-.646.23-.936a1.063 1.063 0 00-.057-.98l-1.281-2.211a1.04 1.04 0 00-1.018-.528c-.12.012-.24.018-.363.018-2.092 0-3.788-1.72-3.788-3.84 0-2.121 1.696-3.84 3.788-3.84.644 0 1.251.162 1.781.45.371.2.796.169 1.133-.084l3.049-2.282a1.05 1.05 0 00.43-.798c.118-1.852 1.638-3.317 3.495-3.317 1.935 0 3.503 1.59 3.503 3.55 0 .919-.344 1.756-.908 2.386-.241.27-.33.61-.25.965l.541 2.394c.08.359.311.63.648.764a3.237 3.237 0 012.027 3.014c0 1.788-1.43 3.237-3.193 3.237-1.764 0-3.194-1.449-3.194-3.237 0-1.067.509-2.013 1.295-2.603.347-.26.5-.68.404-1.107l-.327-1.45a1.054 1.054 0 00-.924-.832 3.456 3.456 0 01-1.698-.67 1.04 1.04 0 00-1.264 0l-2.391 1.79a1.06 1.06 0 00-.418 1.043 3.915 3.915 0 01-.511 2.639 1.067 1.067 0 00-.012 1.112l1.246 2.153c.194.335.521.528.904.533 1.557.02 2.813 1.305 2.813 2.888 0 1.595-1.276 2.888-2.849 2.888-.465 0-.904-.113-1.291-.313a1.02 1.02 0 00-.921-.022l-2.897 1.327c-.36.165-.588.49-.622.888-.159 1.83-1.674 3.265-3.52 3.265a3.48 3.48 0 01-1.744-.467 1.018 1.018 0 00-.843-.092 1.03 1.03 0 00-.642.562 3.482 3.482 0 01-1.298 1.457 1.06 1.06 0 00-.504.985l.201 3.313c.024.39.232.714.575.893a3.13 3.13 0 011.674 2.78c0 1.727-1.381 3.127-3.084 3.127-1.614 0-2.938-1.258-3.072-2.858a1.057 1.057 0 00-.741-.938l-.315-.1a1.033 1.033 0 00-1.078.27 2.763 2.763 0 01-1.987.843c-1.542 0-2.793-1.268-2.793-2.831 0-.456.107-.887.296-1.269a1.06 1.06 0 00-.022-1.01l-3.914-7.12a1.044 1.044 0 00-1.127-.534 5.027 5.027 0 01-5.21-2.29 1.037 1.037 0 00-1.029-.493l-7.175.9a1.04 1.04 0 00-.845.64 3.621 3.621 0 01-3.323 2.212c-1.67 0-3.075-1.146-3.494-2.704a1.04 1.04 0 00-.487-.647l-6.486-3.865a1.028 1.028 0 00-1.085.004 3.565 3.565 0 01-1.856.518c-1.999 0-3.62-1.643-3.62-3.67 0-.207.017-.408.049-.605.06-.36-.05-.697-.309-.952l-2.233-2.195a1.026 1.026 0 00-.925-.288 4.15 4.15 0 01-.731.064c-2.314 0-4.19-1.901-4.19-4.247 0-2.345 1.876-4.247 4.19-4.247.298 0 .59.032.87.092.39.084.768-.046 1.028-.354l2.444-2.895c.265-.314.331-.723.178-1.107a3.701 3.701 0 01-.264-1.376c0-2.027 1.622-3.67 3.62-3.67 2 0 3.622 1.643 3.622 3.67 0 .299-.036.589-.102.867-.08.335-.01.658.203.927l2.705 3.431c.223.284.54.426.898.404a2.605 2.605 0 01.674.043c.321.063.623-.014.876-.224l.147-.122c.315-.26.45-.65.368-1.053a3.619 3.619 0 01.386-2.479c.186-.33.191-.703.016-1.039l-1.475-2.822a1.041 1.041 0 00-1.003-.572 3.591 3.591 0 01-.208.006c-1.934 0-3.503-1.59-3.503-3.55 0-1.962 1.569-3.552 3.503-3.552.766 0 1.474.25 2.05.672.329.24.734.275 1.097.092l4.595-2.31c.332-.168.54-.468.584-.84.189-1.62 1.548-2.876 3.197-2.876 1.778 0 3.22 1.461 3.22 3.263 0 .877-.342 1.674-.897 2.26a1.055 1.055 0 00-.287.896l.737 5.375c.08.586.615.999 1.194.92l.481-.064c.379-.05.68-.279.834-.633a3.55 3.55 0 011.187-1.468c.316-.226.478-.576.448-.965l-.315-4.086a1.052 1.052 0 00-.562-.87 3.558 3.558 0 01-1.86-3.136c0-1.961 1.568-3.551 3.502-3.551 1.318 0 2.467.738 3.064 1.829.184.335.5.534.878.553l2.23.112c.446.022.84-.222 1.023-.635a3.501 3.501 0 013.196-2.097c1.935 0 3.503 1.59 3.503 3.55 0 1.962-1.568 3.552-3.503 3.552-1.544 0-2.856-1.014-3.321-2.421l-2.821-.141c-.452-.023-.85.23-1.03.651a3.541 3.541 0 01-1.715 1.806 1.063 1.063 0 00-.604 1.058l.26 3.376c.035.444.314.803.731.941.92.304 1.672.983 2.081 1.859.175.374.518.603.927.617l.679.022c.366.013.686-.147.899-.448a2.635 2.635 0 012.152-1.12 2.61 2.61 0 011.566.52c.419.313.987.276 1.364-.087a3.331 3.331 0 011.974-.921 1.04 1.04 0 00.862-.628l1.362-3.041a1.07 1.07 0 00-.174-1.163 3.566 3.566 0 01-.885-2.359c0-1.96 1.569-3.55 3.503-3.55 1.935 0 3.503 1.59 3.503 3.55 0 1.86-1.412 3.388-3.209 3.539a1.04 1.04 0 00-.881.629l-1.357 3.03a1.07 1.07 0 00.165 1.153c.511.599.821 1.38.821 2.233a3.404 3.404 0 01-2.572 3.317c-.421.103-.724.43-.798.863l-.536 3.11c-.079.462.13.904.536 1.13.1.056.198.117.293.182.362.248.81.252 1.177.01l3.14-2.07c.356-.235.534-.633.473-1.059a3.056 3.056 0 01-.03-.42c0-1.61 1.289-2.917 2.879-2.917.073 0 .145.003.217.008.391.03.741-.143.961-.472l2.191-3.29a1.073 1.073 0 00-.009-1.22 3.57 3.57 0 01-.629-2.03c0-1.96 1.569-3.55 3.503-3.55 1.935 0 3.503 1.59 3.503 3.55 0 1.961-1.568 3.551-3.503 3.551-.036 0-.072 0-.108-.002a1.033 1.033 0 00-.914.475l-2.473 3.712a1.064 1.064 0 00-.095 1.031c.151.354.234.744.234 1.155 0 1.61-1.288 2.917-2.878 2.917-.292 0-.574-.044-.839-.125a1.02 1.02 0 00-.89.127l-3.802 2.508a1.058 1.058 0 00-.481.977c.005.084.008.17.008.255v.038c-.003.309.107.575.327.789.219.213.486.315.79.3a3.828 3.828 0 011.641.277c.383.155.791.084 1.101-.193l6.24-5.583a1.05 1.05 0 00.356-.899 2.831 2.831 0 01-.009-.226c0-1.483 1.186-2.684 2.648-2.684zm-13.55 34.445l1.992.636c.065-.056.132-.109.201-.159.308-.222.468-.562.445-.945l-.206-3.398a1.054 1.054 0 00-.601-.906 3.484 3.484 0 01-1.908-2.59 1.049 1.049 0 00-.694-.848l-4.588-1.652a1.038 1.038 0 00-1.169.32c-.292.35-.337.822-.117 1.222l3.03 5.51c.168.306.442.496.784.544a2.8 2.8 0 012.176 1.67c.128.295.352.499.655.596zM100.03 24.835c.13.317.201.664.201 1.028 0 1.483-1.185 2.685-2.648 2.685a2.6 2.6 0 01-.202-.008c-.39-.03-.74.141-.96.47l-2.934 4.377c-.2.3-.241.648-.115.986a3.705 3.705 0 01.224 1.517 1.06 1.06 0 00.523.995l5.308 3.163c.434.26.973.18 1.317-.193a3.603 3.603 0 011.949-1.098c.353-.07.626-.29.771-.624l1.396-3.217c.175-.404.1-.85-.198-1.172a3.564 3.564 0 01-.947-2.427c0-.815.271-1.566.726-2.165.241-.317.291-.71.138-1.079l-1.162-2.782a1.043 1.043 0 00-.871-.653 3.432 3.432 0 01-1.042-.279 1.034 1.034 0 00-1.122.169l-.352.307zm-4.975 1.829a2.715 2.715 0 01-.013-1.559 1.06 1.06 0 00-.19-.977l-2.224-2.822a1.042 1.042 0 00-1.22-.331 3.565 3.565 0 01-2.397.085 1.036 1.036 0 00-1.125.329l-2.073 2.454a1.077 1.077 0 00-.084 1.29c.427.664.674 1.458.674 2.31 0 .748-.19 1.45-.526 2.06a1.08 1.08 0 00.19 1.299l1.305 1.283c.316.311.762.393 1.166.215a3.566 3.566 0 012.438-.164c.448.13.907-.04 1.17-.43l2.772-4.112c.19-.282.238-.604.137-.93zm43.383 15.834l-3.012-4.898a1.044 1.044 0 00-1.12-.486 3.839 3.839 0 01-3.228-.786 1.035 1.035 0 00-1.186-.1l-4.29 2.43a1.06 1.06 0 00-.542 1.017 5.393 5.393 0 01-.043 1.117 1.072 1.072 0 00.697 1.175l6.019 2.167a1.03 1.03 0 001.06-.207 3.396 3.396 0 013.907-.449c.269.148.555.174.845.075.29-.098.503-.292.63-.574.076-.167.164-.328.263-.48zm-10.943-18.505l.714-4.147a1.059 1.059 0 00-.299-.953 3.476 3.476 0 01-.145-.154 1.046 1.046 0 00-1.351-.201c-.403.25-.877.395-1.384.395a2.64 2.64 0 01-2.299-1.353 1.038 1.038 0 00-.889-.542l-.524-.018a1.043 1.043 0 00-.985.591 3.535 3.535 0 01-1.675 1.632 1.057 1.057 0 00-.622.96l-.084 4.2a1.06 1.06 0 00.565.974 4.139 4.139 0 011.806 1.94c.193.426.612.67 1.072.625l2.677-.267c.423-.042.762-.313.901-.72a3.762 3.762 0 011.928-2.172c.323-.154.533-.433.594-.79zm-11.508.95l.096-4.845a1.057 1.057 0 00-.553-.969 3.542 3.542 0 01-1.558-1.753l-.459.062a1.033 1.033 0 00-.778.522 1.06 1.06 0 00-.072.943l2.096 5.381c.187.479.665.753 1.166.668l.062-.01zm-10.464-.557l1.146 2.742c.156.375.48.616.88.654 1.78.169 3.172 1.687 3.172 3.535 0 1.739-1.233 3.186-2.861 3.491a1.04 1.04 0 00-.78.626l-1.357 3.128a1.07 1.07 0 00.223 1.198c.205.208.386.44.537.692.223.37.615.562 1.039.509l6.601-.829c.478-.06.845-.42.92-.901a5.125 5.125 0 011.693-3.072 1.07 1.07 0 00.32-1.143l-.364-1.162a1.045 1.045 0 00-.824-.736c-1.907-.35-3.354-2.043-3.354-4.078 0-.853.255-1.646.691-2.305a1.06 1.06 0 00.106-.997l-2.493-6.399a1.034 1.034 0 00-.636-.62 1.017 1.017 0 00-.879.079l-2.351 1.354c-.343.198-.54.542-.538.942v.012c0 .828-.28 1.59-.748 2.193a1.066 1.066 0 00-.143 1.087zm.504-6.155l3.096-1.784c.387-.223.59-.64.529-1.086l-.745-5.433a1.056 1.056 0 00-.84-.909 3.18 3.18 0 01-1.183-.515 1.03 1.03 0 00-1.081-.08l-4.522 2.274c-.35.176-.564.503-.589.9a3.56 3.56 0 01-.475 1.573 1.064 1.064 0 00-.023 1.052l1.447 2.77c.202.387.587.603 1.017.572a3.464 3.464 0 012.239.616c.344.241.767.26 1.13.05z" fill="#1A318C"/><path d="M109.353 55.54c-2.119.458-3.592 1.244-5.014 2.684-1.731 1.782-2.532 3.812-2.532 6.484-.013 2.593.788 4.571 2.623 6.431.891.93 1.305 1.231 2.196 1.663 1.512.734 2.391.956 4.2 1.035 2.248.092 3.902-.314 5.698-1.415 1.447-.89 3.126-2.724 2.971-3.221-.09-.262-2.3-1.611-2.648-1.611-.117 0-.478.275-.789.602a9.43 9.43 0 01-1.343 1.113c-2.119 1.415-4.962 1.375-6.913-.065-.775-.59-1.615-1.808-1.912-2.816-.323-1.087-.284-2.882.077-3.838.879-2.292 2.533-3.484 5.014-3.615.956-.04 1.356 0 2.067.21 1.046.327 2.196 1.06 3.01 1.912.311.327.672.602.789.602.336 0 2.558-1.349 2.648-1.61.181-.577-1.847-2.646-3.424-3.471-1.628-.865-2.558-1.1-4.47-1.153-.918-.026-1.938.013-2.248.078zM1.98 55.985c-.103.118-.129 2.515-.116 8.736l.04 8.566 5.943.04c5.116.026 6.034 0 6.641-.184 1.137-.328 1.964-.825 2.726-1.611 1.24-1.284 1.77-2.79 1.641-4.637-.168-2.475-1.886-4.374-4.51-5.003-.62-.144-1.705-.197-4.431-.197-2.649 0-3.67-.039-3.786-.157-.206-.21-.206-1.886.013-2.03.078-.052 2.662-.13 5.711-.17l5.556-.066.039-1.558c.026-1.022-.013-1.611-.116-1.73-.22-.274-15.13-.274-15.35 0zm11.449 9.312c1.576.472 2.157 2.319 1.15 3.655-.608.812-.982.877-4.988.838l-3.553-.04-.039-2.16c-.026-1.913-.013-2.175.194-2.319.349-.262 6.37-.236 7.236.026zm8.191-9.312c-.103.118-.129 2.515-.116 8.736l.039 8.566h4.005l.026-1.572c.052-2.41-.426-2.121 3.747-2.2 2.83-.052 3.76-.105 4.354-.288 2.92-.839 4.833-3.104 5.065-6.025.104-1.244-.103-2.292-.723-3.55-.93-1.912-2.752-3.248-5-3.654-1.448-.262-11.177-.275-11.397-.013zm11.422 3.903c2.481 1.323 2.481 4.257.013 5.58-.659.353-.672.353-3.863.393-2.352.039-3.256 0-3.398-.105-.246-.223-.272-5.881-.013-6.143.116-.118.917-.144 3.385-.118 3.217.04 3.23.04 3.876.393zm8.477-3.903c-.104.118-.13 2.515-.116 8.736l.038 8.566h16.022v-3.405l-5.853-.066c-5.013-.052-5.866-.091-5.97-.262-.18-.288-.168-2.92.026-3.117.117-.118 1.422-.157 5.104-.157 4.755 0 4.949-.013 5.078-.25.065-.143.13-.877.13-1.636 0-1.074-.04-1.415-.208-1.572-.168-.183-.827-.21-5.155-.21-4.393 0-4.962-.026-5.026-.21-.142-.379-.09-2.606.077-2.776.117-.118 1.525-.157 5.57-.157 3.475 0 5.49-.052 5.659-.131.22-.131.245-.288.245-1.677 0-1.034-.052-1.598-.155-1.702-.245-.25-15.26-.223-15.466.026zm19.121-.001c-.102.118-.128 2.515-.115 8.737l.038 8.566 6.396.039c4.548.026 6.603 0 7.106-.118 1.603-.34 2.843-1.323 3.567-2.803.4-.825.478-1.126.53-2.122.116-1.912-.44-3.235-1.81-4.309l-.62-.484.388-.407c.75-.772 1.046-2.043.788-3.3-.426-2.109-1.912-3.484-4.135-3.838-.49-.078-3.165-.144-6.408-.144-4.548 0-5.608.04-5.724.183zm11.294 3.484c1.046.236 1.537 1.363 1.033 2.358-.374.747-.607.786-4.496.786-2.571 0-3.566-.04-3.683-.157-.103-.105-.155-.629-.155-1.506 0-1.14.04-1.363.233-1.467.284-.17 6.357-.184 7.068-.014zm1.02 6.68c.285.066.685.302.905.524.362.367.4.472.4 1.231 0 .72-.051.891-.323 1.192-.62.695-.84.72-5.078.72-2.868 0-3.953-.039-4.07-.156-.103-.105-.155-.695-.155-1.769 0-1.388.026-1.61.233-1.729.284-.17 7.378-.183 8.088-.013zm7.986-10.189c-.116.117-.155 2.213-.155 8.605 0 4.663.052 8.54.103 8.631.091.118.595.157 2.094.131l1.99-.04 4.703-5.762c2.584-3.17 4.755-5.776 4.82-5.802.064-.027.115 2.252.115 5.632 0 3.117.052 5.75.104 5.841.09.118.581.157 2.041.131l1.925-.04.04-8.63c.025-6.824 0-8.658-.13-8.75-.09-.052-.97-.105-1.951-.105-1.68 0-1.796.014-2.067.289-.155.17-2.339 2.816-4.846 5.907-2.52 3.078-4.625 5.566-4.69 5.527-.064-.052-.116-2.397-.116-5.75 0-4.23-.039-5.697-.155-5.815-.104-.105-.724-.158-1.912-.158-1.19 0-1.81.053-1.913.158z" fill="#1A318C"/></svg>