<svg width="151" height="82" fill="none" xmlns="http://www.w3.org/2000/svg"><path d="M102.69 51.08c-1.985.424-3.365 1.15-4.697 2.481-1.621 1.646-2.372 3.522-2.372 5.992-.012 2.396.739 4.224 2.457 5.942.835.86 1.223 1.138 2.058 1.537 1.416.678 2.239.884 3.933.956 2.106.085 3.655-.29 5.338-1.307 1.355-.823 2.929-2.517 2.784-2.977-.085-.242-2.155-1.489-2.482-1.489-.109 0-.447.254-.738.557a8.72 8.72 0 01-1.259 1.029c-1.985 1.307-4.647 1.27-6.475-.06-.726-.545-1.513-1.671-1.791-2.603-.303-1.005-.266-2.663.073-3.546.822-2.118 2.372-3.22 4.696-3.34.895-.037 1.27 0 1.936.193.98.303 2.058.98 2.82 1.767.291.303.629.557.738.557.315 0 2.397-1.247 2.482-1.489.169-.532-1.731-2.445-3.208-3.207-1.525-.8-2.396-1.017-4.188-1.065-.859-.025-1.815.012-2.105.072zm-100.578.412c-.097.109-.121 2.324-.11 8.073l.037 7.915 5.568.036c4.793.025 5.652 0 6.22-.169 1.066-.303 1.84-.762 2.554-1.489 1.162-1.186 1.659-2.578 1.538-4.284-.158-2.288-1.767-4.043-4.224-4.624-.581-.133-1.598-.181-4.152-.181-2.481 0-3.437-.036-3.546-.145-.194-.194-.194-1.743.012-1.876.073-.049 2.493-.121 5.35-.158l5.204-.06.036-1.44c.025-.945-.012-1.49-.109-1.598-.205-.254-14.172-.254-14.378 0zm10.723 8.605c1.477.436 2.021 2.142 1.077 3.377-.568.75-.92.81-4.671.775l-3.329-.037-.036-1.997c-.024-1.767-.012-2.009.181-2.142.327-.242 5.967-.218 6.778.024zm7.673-8.605c-.096.109-.12 2.324-.109 8.073l.037 7.916h3.752l.024-1.453c.048-2.227-.4-1.96 3.51-2.033 2.65-.049 3.522-.097 4.079-.267 2.735-.774 4.526-2.868 4.744-5.567.097-1.15-.097-2.118-.678-3.28-.871-1.767-2.578-3.002-4.684-3.377-1.355-.242-10.469-.254-10.675-.012zm10.7 3.607c2.323 1.222 2.323 3.933.012 5.156-.618.327-.63.327-3.62.363-2.202.036-3.05 0-3.182-.097-.23-.206-.255-5.434-.012-5.676.109-.11.859-.133 3.17-.11 3.014.037 3.026.037 3.631.364zm7.94-3.607c-.097.109-.121 2.324-.109 8.073l.036 7.916h15.008v-3.147l-5.482-.06c-4.697-.05-5.495-.086-5.592-.243-.17-.266-.157-2.699.024-2.88.109-.11 1.331-.146 4.78-.146 4.455 0 4.636-.012 4.757-.23.06-.133.121-.81.121-1.513 0-.992-.036-1.307-.193-1.452-.157-.17-.775-.194-4.83-.194-4.114 0-4.647-.024-4.707-.193-.134-.351-.085-2.409.072-2.566.109-.11 1.428-.145 5.217-.145 3.255 0 5.143-.049 5.3-.122.207-.12.23-.266.23-1.549 0-.956-.048-1.476-.145-1.573-.23-.23-14.293-.206-14.487.024zm17.913 0c-.097.11-.121 2.324-.109 8.073l.036 7.916 5.992.036c4.26.024 6.184 0 6.656-.11 1.501-.314 2.663-1.221 3.34-2.59.376-.762.449-1.04.497-1.96.109-1.767-.412-2.99-1.694-3.982l-.581-.448.363-.375c.702-.714.98-1.888.738-3.05-.4-1.949-1.791-3.22-3.873-3.546-.46-.073-2.965-.133-6.003-.133-4.26 0-5.253.036-5.362.17zm10.578 3.22c.98.217 1.44 1.258.969 2.178-.352.69-.57.726-4.212.726-2.409 0-3.34-.036-3.45-.145-.097-.097-.145-.58-.145-1.392 0-1.053.036-1.258.218-1.355.266-.158 5.955-.17 6.62-.012zm.956 6.172c.267.06.642.279.848.484.338.34.375.436.375 1.138 0 .666-.049.823-.303 1.102-.58.64-.787.665-4.756.665-2.687 0-3.704-.036-3.813-.145-.097-.097-.145-.642-.145-1.634 0-1.283.024-1.489.218-1.598.266-.157 6.91-.17 7.576-.012zm7.48-9.417c-.109.11-.145 2.046-.145 7.952 0 4.309.048 7.892.096 7.976.085.11.557.145 1.961.121l1.864-.036 4.406-5.326c2.42-2.928 4.454-5.337 4.514-5.361.06-.024.11 2.082.11 5.204 0 2.88.048 5.314.096 5.398.085.11.545.145 1.912.121l1.804-.036.036-7.976c.024-6.306 0-8-.121-8.085-.085-.048-.908-.097-1.828-.097-1.573 0-1.682.012-1.936.266-.145.158-2.19 2.603-4.539 5.459-2.36 2.844-4.333 5.144-4.393 5.108-.06-.049-.11-2.215-.11-5.314 0-3.91-.036-5.265-.145-5.374-.096-.096-.677-.145-1.79-.145-1.114 0-1.695.049-1.792.145zM1.85 82c.863 0 1.28-.388 1.668-1.421l1.87-4.984a.158.158 0 00-.018-.15.158.158 0 00-.133-.07H4.092a.16.16 0 00-.155.113l-.921 2.874a.16.16 0 01-.154.113.16.16 0 01-.155-.11l-.962-2.88a.16.16 0 00-.154-.11H.42a.158.158 0 00-.134.07.159.159 0 00-.018.151l1.878 4.81a.158.158 0 01-.01.14c-.114.198-.244.26-.466.26-.144 0-.315-.049-.472-.122a.156.156 0 00-.124-.006.157.157 0 00-.092.085l-.348.75a.163.163 0 00.072.212c.33.173.686.275 1.144.275zm7.395-1.544h1.097c.09 0 .162-.073.162-.163v-2.332a.16.16 0 01.115-.155.16.16 0 01.182.064l.962 1.42a.158.158 0 00.135.071.158.158 0 00.134-.07l.98-1.45a.16.16 0 01.183-.063.16.16 0 01.115.155v2.36c0 .09.073.162.162.162h1.135c.09 0 .162-.072.162-.162v-4.756a.163.163 0 00-.162-.162h-1.21a.158.158 0 00-.135.073l-1.209 1.85a.158.158 0 01-.136.074.158.158 0 01-.136-.075L10.59 75.45a.158.158 0 00-.137-.074H9.245a.163.163 0 00-.163.162v4.756c0 .09.073.162.163.162zm14.063-5.081h-1.116a.163.163 0 00-.162.162v1.628c0 .09-.073.163-.163.163H20.42a.163.163 0 01-.163-.163v-1.628a.163.163 0 00-.162-.162h-1.116a.163.163 0 00-.162.162v4.756c0 .09.073.162.162.162h1.116c.09 0 .162-.072.162-.162v-1.618c0-.09.073-.162.163-.162h1.447c.09 0 .163.072.163.162v1.618c0 .09.073.162.162.162h1.116c.09 0 .163-.072.163-.162v-4.756a.163.163 0 00-.163-.162zm4.372 5.08h2.397c1.223 0 1.952-.654 1.952-1.725 0-1.137-.853-1.677-2.028-1.677h-.88a.163.163 0 01-.162-.163v-1.353a.163.163 0 00-.163-.162H27.68a.163.163 0 00-.162.162v4.756c0 .09.073.162.162.162zm2.179-2.312c.474 0 .72.218.72.568 0 .389-.237.607-.71.607h-.748a.163.163 0 01-.162-.162v-.85c0-.09.072-.163.162-.163h.738zm3.006 2.313h1.116c.09 0 .162-.073.162-.163v-4.756a.163.163 0 00-.162-.162h-1.116a.163.163 0 00-.163.162v4.756c0 .09.073.162.163.162zm7.733.113c.852 0 1.501-.31 1.969-.823a.157.157 0 00.042-.118.157.157 0 00-.055-.113l-.597-.528a.162.162 0 00-.212-.002c-.357.302-.688.428-1.128.428-.568 0-.99-.266-1.178-.777a.158.158 0 01.019-.149.158.158 0 01.133-.07h3.168a.162.162 0 00.162-.152c.005-.08.009-.157.009-.227 0-1.44-.777-2.758-2.474-2.758-1.479 0-2.512 1.195-2.512 2.645 0 1.573 1.128 2.644 2.654 2.644zm-1.194-3.26c.154-.535.52-.873 1.052-.873.54 0 .901.347 1.033.88a.158.158 0 01-.03.139.158.158 0 01-.128.062H39.56a.158.158 0 01-.13-.065.158.158 0 01-.026-.142zm11.015 4.663h1.116c.09 0 .162-.073.162-.162v-1.617a.16.16 0 01.096-.148.16.16 0 01.174.025c.315.277.729.48 1.313.48 1.204 0 2.313-.929 2.313-2.625 0-1.716-1.128-2.645-2.313-2.645-.57 0-.987.204-1.308.51a.16.16 0 01-.176.033.16.16 0 01-.099-.15v-.136a.163.163 0 00-.162-.162h-1.116a.163.163 0 00-.163.162v6.273c0 .09.073.162.163.162zm2.491-2.645c-.673 0-1.232-.559-1.232-1.402 0-.863.56-1.422 1.232-1.422.673 0 1.242.56 1.242 1.403 0 .872-.569 1.421-1.242 1.421zm8.91 1.242c.852 0 1.501-.31 1.969-.823a.157.157 0 00.042-.118.157.157 0 00-.055-.113l-.597-.528a.162.162 0 00-.212-.002c-.357.302-.687.428-1.128.428-.568 0-.99-.266-1.178-.777a.158.158 0 01.019-.149.158.158 0 01.133-.07h3.168a.162.162 0 00.162-.152c.005-.08.009-.157.009-.227 0-1.44-.777-2.758-2.474-2.758-1.479 0-2.512 1.195-2.512 2.645 0 1.573 1.128 2.644 2.654 2.644zm-1.194-3.26c.154-.535.52-.873 1.052-.873.541 0 .901.347 1.033.88a.158.158 0 01-.03.139.158.158 0 01-.127.062h-1.772a.158.158 0 01-.13-.065.157.157 0 01-.026-.142zm14.756-1.934h-1.125a.163.163 0 00-.162.162v3.524c0 .09-.073.162-.163.162h-1.286a.163.163 0 01-.163-.162v-3.524a.163.163 0 00-.162-.162h-1.116a.163.163 0 00-.162.162v3.524c0 .09-.073.162-.163.162h-1.296a.163.163 0 01-.162-.162v-3.524a.163.163 0 00-.163-.162h-1.116a.163.163 0 00-.162.162v4.756c0 .09.073.162.162.162h7.24a.162.162 0 00.162-.162v-4.756a.163.163 0 00-.163-.162zM82 80.569c.853 0 1.501-.31 1.97-.823a.156.156 0 00.041-.118.157.157 0 00-.054-.113l-.597-.528a.162.162 0 00-.213-.002c-.357.302-.687.428-1.127.428-.569 0-.99-.266-1.179-.777a.158.158 0 01.02-.149.158.158 0 01.133-.07h3.168a.162.162 0 00.162-.152 3.7 3.7 0 00.008-.227c0-1.44-.777-2.758-2.474-2.758-1.478 0-2.511 1.195-2.511 2.645 0 1.573 1.128 2.644 2.653 2.644zm-1.194-3.26c.155-.535.52-.873 1.052-.873.541 0 .902.347 1.034.88a.157.157 0 01-.03.139.157.157 0 01-.128.062H80.96a.158.158 0 01-.13-.065.158.158 0 01-.026-.142zm11.847-1.934h-1.116a.163.163 0 00-.162.162v1.628c0 .09-.073.163-.163.163h-1.447a.163.163 0 01-.163-.163v-1.628a.163.163 0 00-.162-.162h-1.116a.163.163 0 00-.163.162v4.756c0 .09.073.162.163.162h1.116c.09 0 .162-.072.162-.162v-1.618c0-.09.073-.162.163-.162h1.447c.09 0 .163.072.163.162v1.618c0 .09.073.162.162.162h1.116c.09 0 .162-.072.162-.162v-4.756a.163.163 0 00-.162-.162zm8.777 0h-1.106a.158.158 0 00-.135.072l-1.636 2.45a.16.16 0 01-.182.064.16.16 0 01-.115-.155v-2.269a.163.163 0 00-.162-.162h-1.069a.163.163 0 00-.162.162v4.756c0 .09.073.162.162.162h1.106a.158.158 0 00.135-.072l1.636-2.44a.16.16 0 01.182-.066.161.161 0 01.115.156v2.26c0 .09.073.162.162.162h1.069c.09 0 .162-.072.162-.162v-4.756a.162.162 0 00-.162-.162zm8.549 0h-2.501c-1.326 0-2.056.682-2.056 1.697 0 .712.342 1.176.885 1.44a.158.158 0 01.087.105.16.16 0 01-.024.134l-1.008 1.45a.161.161 0 00.133.255h1.27a.158.158 0 00.136-.074l.975-1.484a.158.158 0 01.136-.073h.527c.089 0 .162.073.162.162v1.306c0 .09.073.162.163.162h1.115c.09 0 .163-.072.163-.162v-4.756a.163.163 0 00-.163-.162zm-2.254 2.407c-.521 0-.844-.227-.844-.635 0-.417.313-.644.835-.644h.823c.089 0 .162.073.162.162v.955c0 .09-.073.162-.162.162h-.814z" fill="#fff"/><path fill-rule="evenodd" clip-rule="evenodd" d="M112.688 32.028a4.71 4.71 0 013.318 1.36c.32.316.793.38 1.186.16l3.977-2.222a.975.975 0 00.51-.863c.001-.044.001-.089.003-.133a.96.96 0 00-.282-.738.961.961 0 00-.73-.3h-.058a3.479 3.479 0 01-2.964-1.654.977.977 0 00-.946-.469l-2.858.282a.973.973 0 00-.823.61 3.85 3.85 0 01-1.248 1.602.983.983 0 00-.354 1.1l.181.57a.985.985 0 00.974.696l.114-.001zm0 1.889a2.837 2.837 0 110 5.674 2.837 2.837 0 010-5.674zm-35.42-11.019a2.219 2.219 0 110 4.438 2.219 2.219 0 010-4.438zm19.387-5.436a1.799 1.799 0 110 3.598 1.799 1.799 0 010-3.598zm12.827 6.945a2.186 2.186 0 110 4.372 2.186 2.186 0 010-4.372zm-7.386-20.84a1.572 1.572 0 110 3.144 1.572 1.572 0 010-3.144zm7.95 9.307a1.679 1.679 0 110 3.357 1.679 1.679 0 010-3.357zm-.754-11.147a1.774 1.774 0 110 3.548 1.774 1.774 0 010-3.548zm9.734-.22a1.774 1.774 0 110 3.548 1.774 1.774 0 010-3.547zm3.265 11.68a1.79 1.79 0 110 3.581 1.79 1.79 0 010-3.581zm-4.916.41a1.176 1.176 0 110 2.352 1.176 1.176 0 010-2.352zm12.342 4.557a1.502 1.502 0 110 3.004 1.502 1.502 0 010-3.004zm5.84-9.532a1.866 1.866 0 110 3.73 1.866 1.866 0 010-3.73zm5.683 5.979a1.977 1.977 0 11.001 3.955 1.977 1.977 0 01-.001-3.955zm-15.919 13.864a2.023 2.023 0 110 4.046 2.023 2.023 0 010-4.046zm-4.709-4.533a1.878 1.878 0 110 3.756 1.878 1.878 0 010-3.756zm15.761 2.873a1.894 1.894 0 110 3.787 1.894 1.894 0 010-3.787zm9.262-5.863a1.917 1.917 0 110 3.833 1.917 1.917 0 010-3.833zm-4.27 14.544a1.25 1.25 0 110 2.501 1.25 1.25 0 010-2.501zm-14.592 5.58a1.7 1.7 0 110 3.4 1.7 1.7 0 010-3.4zm.62 10.476a1.332 1.332 0 11.002 2.665 1.332 1.332 0 01-.002-2.665zm-6.738-2.103a1.138 1.138 0 110 2.276 1.138 1.138 0 010-2.276zm27.198-19.219a1.438 1.438 0 110 2.876 1.438 1.438 0 010-2.876zm-63.308.599a1.897 1.897 0 110 3.794 1.897 1.897 0 010-3.794zm12.56 6.185a1.897 1.897 0 110 3.794 1.897 1.897 0 010-3.794zM100.69 26.8a1.897 1.897 0 110 3.794 1.897 1.897 0 010-3.794zM84.646 14.084a1.897 1.897 0 110 3.794 1.897 1.897 0 010-3.794zm6.656-5.644a1.827 1.827 0 110 3.653 1.827 1.827 0 010-3.653zm41.398 30.5a1.908 1.908 0 110 3.817 1.908 1.908 0 010-3.816zM91.665 22.483a1.176 1.176 0 110 2.351 1.176 1.176 0 010-2.351zm44.694-2.928a1.176 1.176 0 110 2.352 1.176 1.176 0 010-2.352zM126.342 3.423a1.773 1.773 0 110 3.546 1.773 1.773 0 010-3.546zm10.017 14.826c.341 0 .667.07.963.194l.373-.329a.974.974 0 00.32-.93 3.281 3.281 0 111.312 2.06l-.196.174a.971.971 0 00-.324.908 2.48 2.48 0 01-3.152 2.783.971.971 0 00-.942.208l-5.642 4.98a.98.98 0 00-.288 1.057c.117.357.18.738.18 1.134 0 .594-.142 1.155-.395 1.65a.974.974 0 00.043.98l2.503 4.015a.98.98 0 001.016.455 3.298 3.298 0 012.649.686c.3.242.685.292 1.037.133l2.305-1.041a.974.974 0 00.583-.834c.023-.305.098-.597.216-.865a.97.97 0 00-.054-.905l-1.199-2.044a.979.979 0 00-.955-.487 3.549 3.549 0 111.33-6.665.976.976 0 001.061-.078l2.856-2.108a.968.968 0 00.402-.738 3.282 3.282 0 115.705 2.42.97.97 0 00-.234.893l.506 2.212a.97.97 0 00.608.705 2.992 2.992 0 11-2.872.38.978.978 0 00.379-1.023l-.307-1.34a.981.981 0 00-.865-.768 3.267 3.267 0 01-1.591-.62.983.983 0 00-1.183 0l-2.241 1.655a.977.977 0 00-.391.963 3.558 3.558 0 01-.479 2.439.978.978 0 00-.011 1.027l1.167 1.99c.182.31.488.488.848.493a2.668 2.668 0 11-1.244 5.048.968.968 0 00-.863-.02l-2.714 1.226a.973.973 0 00-.582.82 3.31 3.31 0 01-4.931 2.586.965.965 0 00-.79-.085.963.963 0 00-.601.519 3.225 3.225 0 01-1.216 1.347.976.976 0 00-.472.91l.189 3.061c.022.361.217.66.538.825a2.888 2.888 0 11-4.199 2.818.977.977 0 00-.693-.867l-.296-.093a.975.975 0 00-1.009.25 2.617 2.617 0 01-4.201-3.01.969.969 0 00-.02-.932l-3.666-6.58a.984.984 0 00-1.057-.494 4.734 4.734 0 01-4.879-2.116.977.977 0 00-.964-.456l-6.721.832a.972.972 0 00-.792.593 3.393 3.393 0 01-6.386-.456.962.962 0 00-.456-.598L87.3 35.624a.974.974 0 00-1.017.004 3.391 3.391 0 01-5.083-3.472.97.97 0 00-.29-.879l-2.092-2.029a.97.97 0 00-.866-.266 3.925 3.925 0 11.13-7.705.974.974 0 00.963-.327l2.29-2.675a.976.976 0 00.166-1.022 3.392 3.392 0 116.441-.471.968.968 0 00.19.857l2.534 3.17a.97.97 0 00.841.373 2.496 2.496 0 01.632.04c.3.058.583-.013.82-.207l.138-.112a.975.975 0 00.345-.974 3.292 3.292 0 01.361-2.29.972.972 0 00.015-.96l-1.381-2.608a.978.978 0 00-.94-.529 3.281 3.281 0 111.725-5.936.975.975 0 001.028.085l4.304-2.135a.971.971 0 00.547-.776 3.017 3.017 0 115.171 2.446.964.964 0 00-.268.828l.69 4.967a.998.998 0 001.118.85l.451-.059a.974.974 0 00.781-.585 3.288 3.288 0 011.112-1.357.974.974 0 00.419-.891l-.295-3.776a.971.971 0 00-.526-.803 3.282 3.282 0 114.408-4.49c.173.31.469.494.823.511l2.089.103a.98.98 0 00.958-.587 3.281 3.281 0 11-.118 2.388l-2.642-.13a.98.98 0 00-.964.602 3.292 3.292 0 01-1.607 1.668.982.982 0 00-.566.978l.244 3.12a.98.98 0 00.685.87 3.29 3.29 0 011.949 1.717.976.976 0 00.868.57l.636.021a.97.97 0 00.843-.414 2.477 2.477 0 013.482-.554.991.991 0 001.278-.081 3.138 3.138 0 011.849-.851.973.973 0 00.807-.58l1.276-2.81a.978.978 0 00-.163-1.075 3.282 3.282 0 112.728 1.09.976.976 0 00-.826.581l-1.271 2.801a.977.977 0 00.155 1.065 3.154 3.154 0 01-1.64 5.128.979.979 0 00-.748.798l-.502 2.873a.984.984 0 00.502 1.045c.094.052.186.108.274.168a.98.98 0 001.103.01l2.942-1.914a.979.979 0 00.443-.977 2.696 2.696 0 012.871-3.077.975.975 0 00.901-.436l2.052-3.04a.98.98 0 00-.009-1.128 3.281 3.281 0 112.592 1.404.97.97 0 00-.856.439l-2.317 3.43a.97.97 0 00-.089.953 2.696 2.696 0 01-3.262 3.647.967.967 0 00-.834.118l-3.561 2.317a.975.975 0 00-.452.902c.006.078.008.157.008.237v.035a.964.964 0 00.306.728.966.966 0 00.74.277 3.633 3.633 0 011.538.256.977.977 0 001.031-.177l5.846-5.16a.97.97 0 00.333-.83 2.48 2.48 0 012.472-2.69zm-12.693 31.83l1.866.587c.061-.05.123-.1.188-.146a.97.97 0 00.417-.873l-.193-3.14a.975.975 0 00-.563-.838 3.226 3.226 0 01-1.787-2.393.972.972 0 00-.65-.783l-4.298-1.527a.981.981 0 00-1.095.296.981.981 0 00-.109 1.129l2.838 5.092a.967.967 0 00.735.502 2.62 2.62 0 012.038 1.543.964.964 0 00.613.55zm-29.71-27.372a2.48 2.48 0 01-2.481 3.424.974.974 0 00-.9.434l-2.747 4.045a.97.97 0 00-.108.911 3.382 3.382 0 01.21 1.401.975.975 0 00.49.92l4.972 2.923a.988.988 0 001.233-.179 3.387 3.387 0 011.826-1.014.97.97 0 00.722-.577l1.308-2.972a.979.979 0 00-.185-1.083 3.27 3.27 0 01-.887-2.243c0-.753.254-1.447.68-2a.974.974 0 00.129-.998l-1.089-2.57a.974.974 0 00-.815-.604 3.256 3.256 0 01-.977-.258.978.978 0 00-1.05.156l-.33.284zm-4.66 1.69a2.48 2.48 0 01-.011-1.44.97.97 0 00-.178-.903l-2.083-2.608a.984.984 0 00-1.143-.306 3.38 3.38 0 01-2.246.079.978.978 0 00-1.054.303l-1.941 2.269a.985.985 0 00-.079 1.191c.4.614.63 1.348.63 2.135 0 .691-.178 1.34-.491 1.904a.986.986 0 00.177 1.2l1.223 1.186a.98.98 0 001.092.198 3.38 3.38 0 012.284-.152.98.98 0 001.096-.396l2.596-3.8a.967.967 0 00.129-.86zm40.639 14.632l-2.822-4.526a.982.982 0 00-1.049-.45 3.625 3.625 0 01-3.023-.726.98.98 0 00-1.111-.093l-4.019 2.247a.977.977 0 00-.508.94 4.735 4.735 0 01-.04 1.032.989.989 0 00.653 1.086l5.638 2.002c.35.124.714.054.993-.191a3.205 3.205 0 012.126-.803c.556 0 1.078.14 1.534.388.252.136.519.16.791.07a.968.968 0 00.591-.531c.07-.155.153-.304.246-.445zm-10.251-17.1l.669-3.832a.97.97 0 00-.28-.88 3.11 3.11 0 01-.136-.143.99.99 0 00-1.266-.186 2.48 2.48 0 01-3.45-.885.973.973 0 00-.832-.5l-.491-.017a.977.977 0 00-.922.546 3.297 3.297 0 01-1.57 1.508.977.977 0 00-.583.886l-.078 3.881a.976.976 0 00.529.9 3.844 3.844 0 011.692 1.794c.18.394.573.62 1.004.577l2.508-.247a.977.977 0 00.844-.665 3.495 3.495 0 011.805-2.007c.303-.142.5-.4.557-.73zm-10.78.877l.09-4.476a.976.976 0 00-.518-.895 3.295 3.295 0 01-1.46-1.62l-.429.056a.968.968 0 00-.729.483.969.969 0 00-.068.872l1.964 4.972a.989.989 0 001.092.617l.058-.009zm-9.802-.514l1.073 2.534c.147.347.45.569.825.604a3.281 3.281 0 01.292 6.493.97.97 0 00-.731.579l-1.272 2.89a.981.981 0 00.21 1.107c.191.192.36.406.503.639.208.342.576.52.973.47l6.183-.765a.984.984 0 00.862-.833 4.72 4.72 0 011.586-2.838.98.98 0 00.299-1.057l-.34-1.074a.976.976 0 00-.772-.68 3.832 3.832 0 01-2.495-5.898.969.969 0 00.1-.922l-2.336-5.912a.962.962 0 00-.595-.574.966.966 0 00-.824.073l-2.202 1.252a.973.973 0 00-.504.87v.012c0 .764-.262 1.468-.7 2.026a.975.975 0 00-.135 1.004zm.473-5.687l2.9-1.649a.981.981 0 00.495-1.003l-.698-5.021a.981.981 0 00-.786-.84 3.003 3.003 0 01-1.109-.476.975.975 0 00-1.012-.074l-4.236 2.102a.973.973 0 00-.552.83 3.264 3.264 0 01-.445 1.454.972.972 0 00-.022.973l1.356 2.56c.189.357.55.557.952.528a3.268 3.268 0 012.098.57.977.977 0 001.059.046z" fill="#fff"/></svg>