<svg width="23" height="20" fill="none" xmlns="http://www.w3.org/2000/svg"><g opacity=".8" fill-rule="evenodd" clip-rule="evenodd" fill="#7C90A2"><path d="M4.372 4.167c-.485 0-.885.377-.885.833v10c0 .456.4.833.885.833h14.154c.484 0 .884-.377.884-.833V5c0-.456-.4-.833-.884-.833H4.372zM1.718 5c0-1.377 1.192-2.5 2.654-2.5h14.154c1.461 0 2.654 1.123 2.654 2.5v10c0 1.377-1.193 2.5-2.654 2.5H4.372c-1.462 0-2.654-1.123-2.654-2.5V5z"/><path d="M1.877 4.522a.92.92 0 011.232-.205l8.339 5.499 8.339-5.499a.92.92 0 011.232.205.803.803 0 01-.218 1.16l-8.846 5.834a.93.93 0 01-1.015 0L2.094 5.683a.803.803 0 01-.217-1.161z"/></g></svg>