<svg width="22" height="20" fill="none" xmlns="http://www.w3.org/2000/svg"><path fill-rule="evenodd" clip-rule="evenodd" d="M3.58 4.167c-.49 0-.894.377-.894.833v10c0 .456.404.833.895.833H17.9c.49 0 .896-.377.896-.833V5c0-.456-.405-.833-.895-.833H3.58zM.897 5c0-1.377 1.206-2.5 2.685-2.5H17.9c1.48 0 2.686 1.123 2.686 2.5v10c0 1.377-1.206 2.5-2.685 2.5H3.58C2.1 17.5.896 16.377.896 15V5z" fill="#fff"/><path fill-rule="evenodd" clip-rule="evenodd" d="M1.056 4.523c.284-.378.842-.47 1.247-.205l8.437 5.499 8.438-5.5c.405-.263.963-.172 1.246.206.284.377.185.896-.22 1.16l-8.95 5.833a.95.95 0 01-1.027 0l-8.95-5.833C.87 5.42.772 4.9 1.056 4.523z" fill="#fff"/></svg>