<svg width="117" height="70" fill="none" xmlns="http://www.w3.org/2000/svg"><g filter="url(#filter0_d_225_347)"><path fill="#fff" d="M7 1h107v46H7z"/><path d="M90.5 61l-9.093-14.25h18.186L90.5 61z" fill="#fff"/><path d="M99.8 17.069c-1.71.365-2.9.991-4.048 2.139-1.398 1.419-2.045 3.036-2.045 5.165-.01 2.065.637 3.64 2.118 5.122.72.741 1.054.981 1.774 1.326 1.22.584 1.93.761 3.391.824 1.815.073 3.151-.25 4.601-1.127 1.169-.71 2.525-2.17 2.4-2.567-.073-.208-1.857-1.283-2.139-1.283-.094 0-.386.219-.636.48a7.589 7.589 0 01-1.086.887c-1.711 1.127-4.006 1.095-5.582-.052-.626-.47-1.304-1.44-1.544-2.244-.26-.866-.23-2.295.063-3.057.71-1.826 2.045-2.775 4.048-2.88.772-.03 1.096 0 1.669.168.846.26 1.774.845 2.432 1.523.25.26.542.48.636.48.271 0 2.066-1.075 2.139-1.284.146-.459-1.492-2.107-2.765-2.765-1.315-.688-2.066-.876-3.61-.918-.741-.02-1.565.01-1.816.063zm-86.704.355c-.083.094-.104 2.003-.094 6.959l.032 6.824 4.8.03c4.131.022 4.872 0 5.362-.145.918-.261 1.586-.657 2.202-1.284 1.001-1.022 1.43-2.222 1.325-3.693-.136-1.972-1.523-3.485-3.642-3.986-.5-.114-1.377-.156-3.578-.156-2.14 0-2.963-.031-3.057-.125-.167-.167-.167-1.503.01-1.618.063-.041 2.15-.104 4.612-.135l4.486-.052.032-1.242c.02-.814-.01-1.283-.094-1.377-.178-.22-12.218-.22-12.396 0zm9.245 7.418c1.273.376 1.742 1.847.928 2.911-.49.647-.793.7-4.027.668l-2.87-.031-.03-1.722c-.022-1.523-.011-1.732.156-1.847.281-.209 5.144-.188 5.843.021zm6.615-7.418c-.084.093-.105 2.003-.094 6.959l.031 6.823h3.235l.02-1.252c.042-1.92-.344-1.69 3.026-1.752 2.285-.042 3.036-.084 3.516-.23 2.358-.668 3.903-2.473 4.09-4.8.084-.99-.083-1.825-.584-2.827-.751-1.523-2.222-2.587-4.038-2.911-1.168-.209-9.025-.22-9.202-.01zm9.223 3.109c2.003 1.054 2.003 3.39.01 4.445-.532.281-.542.281-3.12.313-1.898.03-2.628 0-2.743-.084-.198-.177-.22-4.685-.01-4.893.093-.094.74-.115 2.733-.094 2.598.031 2.608.031 3.13.313zm6.844-3.109c-.083.093-.104 2.003-.094 6.959l.032 6.823h12.937v-2.712l-4.727-.052c-4.048-.042-4.737-.073-4.82-.21-.147-.229-.136-2.326.02-2.482.094-.094 1.148-.125 4.122-.125 3.84 0 3.996-.01 4.1-.199.052-.114.105-.699.105-1.304 0-.855-.032-1.127-.167-1.252-.136-.146-.668-.167-4.163-.167-3.548 0-4.007-.02-4.06-.167-.114-.302-.072-2.076.063-2.212.094-.094 1.231-.125 4.497-.125 2.807 0 4.435-.042 4.57-.104.178-.105.199-.23.199-1.336 0-.824-.042-1.273-.126-1.356-.198-.198-12.322-.178-12.489.02zm15.442 0c-.083.093-.104 2.003-.093 6.959l.03 6.823 5.166.032c3.672.02 5.331 0 5.738-.094 1.294-.271 2.296-1.054 2.88-2.233.323-.657.386-.897.428-1.69.093-1.523-.355-2.577-1.461-3.433l-.5-.386.312-.323c.605-.616.845-1.628.636-2.63-.344-1.68-1.544-2.775-3.338-3.057-.397-.062-2.556-.114-5.175-.114-3.673 0-4.529.03-4.622.146zm9.12 2.775c.845.188 1.241 1.085.834 1.878-.302.595-.49.626-3.63.626-2.077 0-2.88-.031-2.974-.125-.084-.084-.125-.501-.125-1.2 0-.908.03-1.085.187-1.169.23-.135 5.134-.146 5.708-.01zm.824 5.321c.23.052.553.24.73.418.292.292.324.375.324.98 0 .574-.042.71-.261.95-.501.553-.678.574-4.1.574-2.317 0-3.193-.032-3.287-.126-.084-.083-.125-.553-.125-1.408 0-1.106.02-1.284.187-1.377.23-.136 5.958-.146 6.532-.01zm6.448-8.117c-.094.094-.126 1.763-.126 6.855 0 3.714.042 6.802.084 6.875.073.094.48.126 1.69.105l1.607-.032 3.798-4.59c2.087-2.525 3.84-4.602 3.892-4.622.052-.021.093 1.794.093 4.486 0 2.483.042 4.58.084 4.653.073.094.47.126 1.648.105l1.555-.032.031-6.875c.021-5.436 0-6.897-.104-6.97-.073-.042-.782-.084-1.575-.084-1.357 0-1.45.01-1.67.23-.125.136-1.888 2.243-3.912 4.706-2.035 2.451-3.736 4.434-3.788 4.403-.052-.042-.094-1.91-.094-4.58 0-3.37-.031-4.54-.125-4.633-.083-.084-.584-.125-1.544-.125-.96 0-1.46.041-1.544.125z" fill="#243CA0"/></g><defs><filter id="filter0_d_225_347" x="0" y="0" width="117" height="70" filterUnits="userSpaceOnUse" color-interpolation-filters="sRGB"><feFlood flood-opacity="0" result="BackgroundImageFix"/><feColorMatrix in="SourceAlpha" values="0 0 0 0 0 0 0 0 0 0 0 0 0 0 0 0 0 0 127 0" result="hardAlpha"/><feOffset dx="-2" dy="4"/><feGaussianBlur stdDeviation="2.5"/><feComposite in2="hardAlpha" operator="out"/><feColorMatrix values="0 0 0 0 0.2 0 0 0 0 0.2 0 0 0 0 0.6 0 0 0 0.35 0"/><feBlend in2="BackgroundImageFix" result="effect1_dropShadow_225_347"/><feBlend in="SourceGraphic" in2="effect1_dropShadow_225_347" result="shape"/></filter></defs></svg>