<svg width="18" height="18" fill="none" xmlns="http://www.w3.org/2000/svg"><path d="M4.265 1.104c-1.567.622-3.239 2.36-3.853 3.991-.614 1.653-.53 4.4.17 5.88.656 1.352 2.032 2.726 3.429 3.39.995.473 1.46.559 3.09.559 1.737 0 2.033-.064 3.176-.665l1.25-.666 2.243 2.21c1.758 1.739 2.33 2.19 2.668 2.104a.865.865 0 00.571-.58c.085-.343-.36-.922-2.074-2.704l-2.18-2.274.655-1.267c.593-1.158.657-1.459.657-3.218 0-1.653-.085-2.125-.55-3.134-.657-1.416-2.012-2.81-3.345-3.476-1.419-.687-4.34-.773-5.907-.15zm4.403 1.395c1.419.429 3.176 2.124 3.557 3.433 1.334 4.571-2.498 8.477-6.965 7.146-1.397-.429-3.027-2.167-3.472-3.712-.698-2.447.275-5 2.414-6.288 1.587-.966 2.71-1.116 4.466-.58z" fill="#243CA0"/></svg>