<svg width="17" height="17" fill="none" xmlns="http://www.w3.org/2000/svg"><path fill-rule="evenodd" clip-rule="evenodd" d="M2.726.11c-.297.13-1.36.966-1.864 1.465-.22.218-.497.539-.618.713-.188.272-.221.365-.24.675-.09 1.518 1.215 3.933 3.514 6.505.705.788 2.73 2.72 3.572 3.407 2.693 2.196 5.255 3.45 6.853 3.353.309-.02.399-.053.745-.279.648-.422 2.014-1.87 2.23-2.364.12-.273.107-.708-.029-.975-.1-.199-.306-.346-1.91-1.365-.989-.628-1.907-1.178-2.041-1.223-.434-.142-.766-.037-2.008.635-.32.173-.607.315-.638.315-.15 0-1.288-.924-2.35-1.907-1.045-.969-2.428-2.477-2.428-2.648 0-.04.148-.318.33-.62.69-1.142.814-1.495.67-1.896-.044-.12-.62-.997-1.28-1.946C4.158.405 4.012.218 3.8.12c-.298-.138-.767-.142-1.073-.01z" fill="#1A318C"/></svg>