<svg width="22" height="13" fill="none" xmlns="http://www.w3.org/2000/svg"><path d="M.578.516L.663.513l.34-.004c.281-.003.659-.004 1.064-.003h.187c.721.001 1.043.002 1.214.017a.841.841 0 01.054.006l.05.037.296-.404-.296.403h0c.066.049.137.1.407.859h0c.409 1.14.952 2.318 1.52 3.339.565 1.012 1.174 1.904 1.724 2.451.318.317.674.594 1.102.594.18 0 .384-.046.558-.2a.993.993 0 00.283-.479l.001-.002c.038-.13.045-.27.05-.543.006-.295.009-.811.011-1.748h0c.004-1.738.004-2.087-.03-2.328-.082-.594-.259-1.056-.595-1.497M.578.516l8.15 4.319c.004-1.77.002-2.063-.025-2.258-.073-.522-.221-.9-.498-1.263a51.152 51.152 0 01-.213-.282C7.823.813 7.786.726 7.786.554a.509.509 0 01.19-.413.95.95 0 01.064-.057c.122-.093.319-.087 2.308-.082M.58.516a.221.221 0 00-.041.018.215.215 0 00-.023.014A.327.327 0 00.5.655c0 .13.032.337.122.691L.578.516zm8.024.495l-.397.303.397-.303s0 0 0 0zm0 0L8.392.732 8.387.726h0a1.811 1.811 0 01-.1-.144m0 0v.003a.056.056 0 00-.002-.006V.578l.002.004zm0 0L8.286.554V.548h0V.536m0 0v.001c-.003.003-.002.003-.001 0l.001-.003V.532v.004zm0 0a.164.164 0 01.019-.018m0 0l-.04.005.022-.009A.178.178 0 008.298.51H8.3c.026-.014.052-.034.053-.034l-.047.04v.002h-.001zm0 0l.077-.006c.235-.014.689-.013 1.647-.01h.319l.001-.5m0 0v.5m0-.5l2.078.006m-2.079.494l6.84.454c-.8 1.77-1.792 3.409-2.681 4.436-.322.37-.75.74-.97.838a.627.627 0 01-.344.057M10.348.502l1.96.006m-1.96-.006l1.97.006m.109-.5l.117.059m-.117-.059l-.223.448.105.052m.118-.5v.294l.117-.235m0 0c.179.09.257.22.306.514m-.306-.514l-.225.441m.531.073c.01.063.018 1.191.018 2.634 0 2.467 0 2.658.074 2.815.006.015.014.029.022.044M12.85.581l-.493.082-.004-.022m.497-.06l-.494.078-.003-.029v.01m.611 5.434c.045.092.159.195.23.213m-.23-.213l-.444.23-.002-.003m.446-.227l-.449.221.003.006m.675-.014l-.12.485a.907.907 0 00.358.007c.1-.016.207-.047.308-.092.184-.08.393-.24.572-.395.192-.166.396-.368.573-.572h0c.932-1.076 1.947-2.761 2.759-4.558m-4.45 5.125l-.12.485a.814.814 0 01-.343-.196.987.987 0 01-.212-.275m5.125-5.139a16.171 16.171 0 01.21-.443l.01-.017a.73.73 0 01.14-.127l-.36.587zm0 0L12.425.508h-.1l-.002.004a.083.083 0 00.006.006c.005.004.005.003-.008-.004m.197 5.787l-.001-.002a.957.957 0 01-.098-.271 2.668 2.668 0 01-.039-.426c-.012-.363-.012-1.037-.012-2.36v-.027a283.384 283.384 0 00-.01-2.391 12.745 12.745 0 00-.005-.183m0 0a.887.887 0 00-.032-.127m0 0s0 0 0 0h0s0 0 0 0zM12.32.508l.001.004v.001L12.31.508m.01 0h-.01m-6.502 9.673h0C5.17 9.6 4.632 8.96 3.9 7.905l1.907 2.276zm0 0c1.343 1.231 2.83 1.992 4.31 2.238h.001m-4.311-2.238l4.311 2.238m0 0c.43.072.657.086 1.205.075l-1.205-.075zm2.235-.136h0a.186.186 0 01-.03.052h0c-.002.002-.009.01-.036.024-.145.077-.304.122-.964.135l1.03-.21zm0 0l.003-.005m-.003.005l.003-.005m0 0l.003-.007.01-1.273c.006-.599.01-.954.016-1.174.006-.206.014-.337.044-.453h0m-.073 2.907l.073-2.907m0 0l.001-.006m-.001.006l.001-.006m0 0c.048-.177.134-.416.36-.578.216-.154.467-.172.654-.172m-1.014.75l1.878-.542m0 0h0a2.253 2.253 0 00-.429-.162 1.703 1.703 0 00-.435-.046m.864.208c.778.37 1.768 1.258 3.018 2.632m-3.018-2.632l3.018 2.632m-3.882-2.84h-.002l.004.5v-.5h-.002zm3.882 2.84c.698.766.86.895 1.035.982m-1.035-.982l1.035.982m0 0c.062.03.068.032.075.034h0c.008.002.037.01.132.016.201.013.564.013 1.35.013a78.213 78.213 0 001.368-.012l.068-.003a.338.338 0 00.121-.055.142.142 0 00.022-.02l.001-.011a.833.833 0 00-.027-.291l-3.11.329zM.598.51L.594.511h.004zm17.504.015c-.005.002-.01.003-.073.033l.53 5.425-.41-.286s0 0 0 0c1.121-1.606 2.115-3.212 2.552-4.114h0c.191-.394.262-.579.319-.796.025-.097.035-.166.038-.213V.532a.33.33 0 00-.037-.018h0l-.006-.002-.01-.004L19.63.502C18.815.5 18.44.498 18.236.51a.709.709 0 00-.133.015h0zM12.322.51V.508h-.002l.002.002zM.553.517H.55h.003zm.07.83C1.08 3.14 2.294 5.586 3.9 7.903L.622 1.346z" stroke="#fff"/></svg>